JosefinSlab-Thin.ufo
<glyph name="one" format="2">
  <advance width="249"/>
  <unicode hex="0031"/>
  <outline>
    <contour>
      <point x="241" y="0" type="line"/>
      <point x="67" y="0" type="line"/>
      <point x="67" y="14" type="line"/>
      <point x="147" y="14" type="line"/>
      <point x="147" y="636" type="line"/>
      <point x="34" y="636" type="line"/>
      <point x="34" y="650" type="line"/>
      <point x="161" y="650" type="line"/>
      <point x="161" y="14" type="line"/>
      <point x="241" y="14" type="line"/>
    </contour>
  </outline>
</glyph>
<glyph name="equal" format="2">
  <advance width="708"/>
  <unicode hex="003D"/>
  <outline>
    <contour>
      <point x="606" y="150" type="line"/>
      <point x="100" y="150" type="line"/>
      <point x="100" y="164" type="line"/>
      <point x="606" y="164" type="line"/>
    </contour>
    <contour>
      <point x="606" y="344" type="line"/>
      <point x="100" y="344" type="line"/>
      <point x="100" y="358" type="line"/>
      <point x="606" y="358" type="line"/>
    </contour>
  </outline>
</glyph>
<glyph name="A" format="2">
  <advance width="828"/>
  <unicode hex="0041"/>
  <outline>
    <contour>
      <point x="209" y="0" type="line"/>
      <point x="35" y="0" type="line"/>
      <point x="35" y="14" type="line"/>
      <point x="109" y="14" type="line"/>
      <point x="185" y="194"/>
      <point x="338" y="551"/>
      <point x="414" y="732" type="qcurve"/>
      <point x="490" y="551"/>
      <point x="642" y="194"/>
      <point x="718" y="14" type="qcurve"/>
      <point x="793" y="14" type="line"/>
      <point x="793" y="0" type="line"/>
      <point x="619" y="0" type="line"/>
      <point x="619" y="14" type="line"/>
      <point x="703" y="14" type="line"/>
      <point x="671" y="89"/>
      <point x="607" y="240"/>
      <point x="575" y="316" type="qcurve"/>
      <point x="253" y="316" type="line"/>
      <point x="221" y="240"/>
      <point x="157" y="89"/>
      <point x="125" y="14" type="qcurve"/>
      <point x="209" y="14" type="line"/>
    </contour>
    <contour>
      <point x="405" y="675" type="qcurve" smooth="yes"/>
      <point x="371" y="587"/>
      <point x="296" y="417"/>
      <point x="259" y="330" type="qcurve"/>
      <point x="569" y="330" type="line"/>
      <point x="423" y="675" type="line"/>
      <point x="414" y="700" type="line"/>
      <point x="412.5847726007313" y="697.1695452014626" name="inserted"/>
      <point x="408.40831891575846" y="685.2249567472755"/>
    </contour>
  </outline>
</glyph>
<glyph name="I" format="2">
  <advance width="244"/>
  <unicode hex="0049"/>
  <outline>
    <contour>
      <point x="209" y="0" type="line"/>
      <point x="35" y="0" type="line"/>
      <point x="35" y="14" type="line"/>
      <point x="112" y="14" type="line"/>
      <point x="112" y="686" type="line"/>
      <point x="35" y="686" type="line"/>
      <point x="35" y="700" type="line"/>
      <point x="209" y="700" type="line"/>
      <point x="209" y="686" type="line"/>
      <point x="126" y="686" type="line"/>
      <point x="126" y="14" type="line"/>
      <point x="209" y="14" type="line"/>
    </contour>
  </outline>
</glyph>
<glyph name="J" format="2">
  <advance width="255"/>
  <unicode hex="004A"/>
  <outline>
    <contour>
      <point x="165.5" y="-80.0" type="qcurve" smooth="yes" name="inserted"/>
      <point x="140" y="-109"/>
      <point x="73" y="-141"/>
      <point x="35" y="-142" type="qcurve"/>
      <point x="35" y="-128" type="line"/>
      <point x="72" y="-126"/>
      <point x="134" y="-95"/>
      <point x="157.0" y="-66.5" type="qcurve" smooth="yes" name="inserted"/>
      <point x="180" y="-38"/>
      <point x="206" y="42"/>
      <point x="206" y="93" type="qcurve" smooth="yes"/>
      <point x="206" y="686" type="line"/>
      <point x="35" y="686" type="line"/>
      <point x="35" y="700" type="line"/>
      <point x="220" y="700" type="line"/>
      <point x="220" y="90" type="line" smooth="yes"/>
      <point x="220" y="34"/>
      <point x="191" y="-51"/>
    </contour>
  </outline>
</glyph>
<glyph name="backslash" format="2">
  <advance width="320"/>
  <unicode hex="005C"/>
  <outline>
    <contour>
      <point x="309" y="-19" type="qcurve"/>
      <point x="295" y="-19" type="line"/>
      <point x="225" y="171"/>
      <point x="87" y="546"/>
      <point x="17" y="736" type="qcurve"/>
      <point x="31" y="736" type="line"/>
      <point x="101" y="546"/>
      <point x="239" y="171"/>
    </contour>
  </outline>
</glyph>
<glyph name="e" format="2">
  <advance width="435"/>
  <unicode hex="0065"/>
  <outline>
    <contour>
      <point x="229" y="369" type="qcurve" smooth="yes"/>
      <point x="184" y="369"/>
      <point x="109" y="328"/>
      <point x="84.5" y="295.0" type="qcurve" smooth="yes" name="inserted"/>
      <point x="60" y="262"/>
      <point x="43" y="178"/>
      <point x="56" y="135" type="qcurve"/>
      <point x="137" y="168"/>
      <point x="299" y="233"/>
      <point x="380" y="266" type="qcurve"/>
      <point x="360" y="312"/>
      <point x="279" y="369"/>
    </contour>
    <contour>
      <point x="362" y="46" type="line"/>
      <point x="336" y="22"/>
      <point x="268" y="-6"/>
      <point x="229" y="-6" type="qcurve" smooth="yes"/>
      <point x="188" y="-6"/>
      <point x="118" y="24"/>
      <point x="92" y="50" type="qcurve" smooth="yes" name="inserted"/>
      <point x="65" y="77"/>
      <point x="35" y="147"/>
      <point x="35" y="188" type="qcurve" smooth="yes"/>
      <point x="35" y="228"/>
      <point x="65" y="300"/>
      <point x="92" y="326" type="qcurve" smooth="yes" name="inserted"/>
      <point x="118" y="352"/>
      <point x="188" y="383"/>
      <point x="229" y="383" type="qcurve" smooth="yes"/>
      <point x="259" y="383"/>
      <point x="314" y="364"/>
      <point x="336" y="346" type="qcurve" smooth="yes"/>
      <point x="356" y="330"/>
      <point x="388" y="286"/>
      <point x="398" y="259" type="qcurve"/>
      <point x="313" y="224"/>
      <point x="146" y="157"/>
      <point x="61" y="122" type="qcurve"/>
      <point x="81" y="71"/>
      <point x="171" y="8"/>
      <point x="229" y="8" type="qcurve" smooth="yes"/>
      <point x="265" y="8"/>
      <point x="329" y="34"/>
      <point x="353" y="57" type="qcurve"/>
    </contour>
  </outline>
</glyph>
<glyph name="i" format="2">
  <advance width="244"/>
  <unicode hex="0069"/>
  <outline>
    <contour>
      <point x="209" y="0" type="line"/>
      <point x="35" y="0" type="line"/>
      <point x="35" y="14" type="line"/>
      <point x="117" y="14" type="line"/>
      <point x="117" y="361" type="line"/>
      <point x="35" y="361" type="line"/>
      <point x="35" y="375" type="line"/>
      <point x="131" y="375" type="line"/>
      <point x="131" y="14" type="line"/>
      <point x="209" y="14" type="line"/>
    </contour>
    <contour>
      <point x="144" y="500" type="qcurve" smooth="yes"/>
      <point x="144" y="492"/>
      <point x="132" y="480"/>
      <point x="124" y="480" type="qcurve" smooth="yes"/>
      <point x="116" y="480"/>
      <point x="104" y="492"/>
      <point x="104" y="500" type="qcurve" smooth="yes"/>
      <point x="104" y="508"/>
      <point x="116" y="520"/>
      <point x="124" y="520" type="qcurve" smooth="yes"/>
      <point x="132" y="520"/>
      <point x="144" y="508"/>
    </contour>
  </outline>
</glyph>
<glyph name="j" format="2">
  <advance width="166"/>
  <unicode hex="006A"/>
  <outline>
    <contour>
      <point x="131" y="-7" type="line" smooth="yes"/>
      <point x="131" y="-64"/>
      <point x="100" y="-151"/>
      <point x="74" y="-180" type="qcurve"/>
      <point x="62" y="-171" type="line"/>
      <point x="87" y="-143"/>
      <point x="117" y="-62"/>
      <point x="117" y="-11" type="qcurve" smooth="yes"/>
      <point x="117" y="361" type="line"/>
      <point x="35" y="361" type="line"/>
      <point x="35" y="375" type="line"/>
      <point x="131" y="375" type="line"/>
    </contour>
    <contour>
      <point x="144" y="500" type="qcurve" smooth="yes"/>
      <point x="144" y="492"/>
      <point x="132" y="480"/>
      <point x="124" y="480" type="qcurve" smooth="yes"/>
      <point x="116" y="480"/>
      <point x="104" y="492"/>
      <point x="104" y="500" type="qcurve" smooth="yes"/>
      <point x="104" y="508"/>
      <point x="116" y="520"/>
      <point x="124" y="520" type="qcurve" smooth="yes"/>
      <point x="132" y="520"/>
      <point x="144" y="508"/>
    </contour>
  </outline>
</glyph>
<glyph name="t" format="2">
  <advance width="300"/>
  <unicode hex="0074"/>
  <outline>
    <contour>
      <point x="225" y="0" type="line"/>
      <point x="124" y="0" type="line"/>
      <point x="124" y="361" type="line"/>
      <point x="35" y="361" type="line"/>
      <point x="35" y="375" type="line"/>
      <point x="124" y="375" type="line"/>
      <point x="124" y="619" type="line"/>
      <point x="138" y="619" type="line"/>
      <point x="138" y="375" type="line"/>
      <point x="265" y="375" type="line"/>
      <point x="265" y="361" type="line"/>
      <point x="138" y="361" type="line"/>
      <point x="138" y="14" type="line"/>
      <point x="225" y="14" type="line"/>
    </contour>
  </outline>
</glyph>
<glyph name="u" format="2">
  <advance width="518"/>
  <unicode hex="0075"/>
  <outline>
    <contour>
      <point x="395" y="98" type="line"/>
      <point x="375" y="50"/>
      <point x="286" y="-7"/>
      <point x="230" y="-7" type="qcurve" smooth="yes"/>
      <point x="177" y="-7"/>
      <point x="116" y="55"/>
      <point x="114" y="105" type="qcurve" smooth="yes"/>
      <point x="114" y="361" type="line"/>
      <point x="35" y="361" type="line"/>
      <point x="35" y="375" type="line"/>
      <point x="128" y="375" type="line"/>
      <point x="128" y="98" type="line"/>
      <point x="130" y="62"/>
      <point x="179" y="9"/>
      <point x="223" y="7" type="qcurve" smooth="yes"/>
      <point x="257" y="7"/>
      <point x="318" y="29"/>
      <point x="341.0" y="48.5" type="qcurve" smooth="yes" name="inserted"/>
      <point x="364" y="68"/>
      <point x="392" y="123"/>
      <point x="392" y="155" type="qcurve" smooth="yes"/>
      <point x="392" y="361" type="line"/>
      <point x="313" y="361" type="line"/>
      <point x="313" y="375" type="line"/>
      <point x="406" y="375" type="line"/>
      <point x="406" y="14" type="line"/>
      <point x="483" y="14" type="line"/>
      <point x="483" y="0" type="line"/>
      <point x="400" y="0" type="line"/>
      <point x="397" y="53" type="line"/>
    </contour>
  </outline>
</glyph>
<glyph name="v" format="2">
  <advance width="590"/>
  <unicode hex="0076"/>
  <outline>
    <contour>
      <point x="489" y="361" type="line"/>
      <point x="441" y="264"/>
      <point x="346" y="74"/>
      <point x="298" y="-23" type="qcurve"/>
      <point x="250" y="74"/>
      <point x="155" y="264"/>
      <point x="107" y="361" type="qcurve"/>
      <point x="35" y="361" type="line"/>
      <point x="35" y="375" type="line"/>
      <point x="196" y="375" type="line"/>
      <point x="196" y="361" type="line"/>
      <point x="122" y="361" type="line"/>
      <point x="166" y="273"/>
      <point x="253" y="96"/>
      <point x="298" y="8" type="qcurve"/>
      <point x="339" y="90"/>
      <point x="429" y="270"/>
      <point x="474" y="361" type="qcurve"/>
      <point x="416" y="361" type="line"/>
      <point x="416" y="375" type="line"/>
      <point x="555" y="375" type="line"/>
      <point x="555" y="361" type="line"/>
    </contour>
  </outline>
</glyph>
<glyph name="w" format="2">
  <advance width="860"/>
  <unicode hex="0077"/>
  <outline>
    <contour>
      <point x="434" y="251" type="line"/>
      <point x="298" y="-23" type="line"/>
      <point x="250" y="74"/>
      <point x="155" y="264"/>
      <point x="107" y="361" type="qcurve"/>
      <point x="35" y="361" type="line"/>
      <point x="35" y="375" type="line"/>
      <point x="196" y="375" type="line"/>
      <point x="196" y="361" type="line"/>
      <point x="122" y="361" type="line"/>
      <point x="166" y="272"/>
      <point x="253" y="96"/>
      <point x="298" y="8" type="qcurve"/>
      <point x="330" y="73"/>
      <point x="394" y="201"/>
      <point x="426" y="266" type="qcurve"/>
      <point x="379" y="361" type="line"/>
      <point x="305" y="361" type="line"/>
      <point x="305" y="375" type="line"/>
      <point x="466" y="375" type="line"/>
      <point x="466" y="361" type="line"/>
      <point x="394" y="361" type="line"/>
      <point x="438" y="272"/>
      <point x="525" y="96"/>
      <point x="570" y="8" type="qcurve"/>
      <point x="615" y="97"/>
      <point x="701" y="272"/>
      <point x="746" y="361" type="qcurve"/>
      <point x="686" y="361" type="line"/>
      <point x="686" y="375" type="line"/>
      <point x="825" y="375" type="line"/>
      <point x="825" y="361" type="line"/>
      <point x="761" y="361" type="line"/>
      <point x="713" y="264"/>
      <point x="618" y="74"/>
      <point x="570" y="-23" type="qcurve"/>
    </contour>
  </outline>
</glyph>
<glyph name="cent" format="2">
  <advance width="385"/>
  <unicode hex="00A2"/>
  <outline>
    <contour>
      <point x="229" y="-68" type="line"/>
      <point x="215" y="-68" type="line"/>
      <point x="215" y="-5" type="line"/>
      <point x="177" y="-2"/>
      <point x="112" y="30"/>
      <point x="88.0" y="55.5" type="qcurve" smooth="yes" name="inserted"/>
      <point x="64" y="81"/>
      <point x="36" y="149"/>
      <point x="36" y="188" type="qcurve" smooth="yes"/>
      <point x="36" y="227"/>
      <point x="64" y="295"/>
      <point x="88.0" y="321.0" type="qcurve" smooth="yes" name="inserted"/>
      <point x="112" y="347"/>
      <point x="177" y="379"/>
      <point x="215" y="382" type="qcurve"/>
      <point x="215" y="438" type="line"/>
      <point x="229" y="438" type="line"/>
      <point x="229" y="383" type="line"/>
      <point x="264" y="383"/>
      <point x="328" y="360"/>
      <point x="353" y="340" type="qcurve"/>
      <point x="353" y="252" type="line"/>
      <point x="339" y="252" type="line"/>
      <point x="339" y="332" type="line"/>
      <point x="316" y="349"/>
      <point x="260" y="369"/>
      <point x="229" y="369" type="qcurve"/>
      <point x="229" y="8" type="line"/>
      <point x="261" y="8"/>
      <point x="320" y="29"/>
      <point x="343" y="47" type="qcurve"/>
      <point x="353" y="37" type="line"/>
      <point x="327" y="17"/>
      <point x="264" y="-6"/>
      <point x="229" y="-6" type="qcurve"/>
    </contour>
    <contour>
      <point x="50" y="188" type="qcurve" smooth="yes"/>
      <point x="50" y="152"/>
      <point x="75" y="89"/>
      <point x="97.5" y="65.0" type="qcurve" smooth="yes" name="inserted"/>
      <point x="120" y="41"/>
      <point x="180" y="11"/>
      <point x="215" y="8" type="qcurve"/>
      <point x="215" y="368" type="line"/>
      <point x="180" y="365"/>
      <point x="120" y="335"/>
      <point x="97.5" y="311.0" type="qcurve" smooth="yes" name="inserted"/>
      <point x="75" y="287"/>
      <point x="50" y="224"/>
    </contour>
  </outline>
</glyph>
<glyph name="degree" format="2">
  <advance width="282"/>
  <unicode hex="00B0"/>
  <outline>
    <contour>
      <point x="75" y="560" type="qcurve" smooth="yes"/>
      <point x="75" y="546"/>
      <point x="87" y="522"/>
      <point x="96" y="513" type="qcurve" smooth="yes"/>
      <point x="105" y="506"/>
      <point x="126" y="498"/>
      <point x="138" y="498" type="qcurve" smooth="yes"/>
      <point x="151" y="498"/>
      <point x="174" y="508"/>
      <point x="182" y="516" type="qcurve" smooth="yes"/>
      <point x="191" y="525"/>
      <point x="200" y="547"/>
      <point x="200" y="560" type="qcurve" smooth="yes"/>
      <point x="200" y="573"/>
      <point x="190" y="596"/>
      <point x="182" y="604" type="qcurve" smooth="yes"/>
      <point x="174" y="612"/>
      <point x="151" y="622"/>
      <point x="138" y="622" type="qcurve" smooth="yes"/>
      <point x="125" y="622"/>
      <point x="102" y="612"/>
      <point x="93" y="604" type="qcurve" smooth="yes"/>
      <point x="85" y="595"/>
      <point x="75" y="573"/>
    </contour>
    <contour>
      <point x="214" y="559" type="qcurve" smooth="yes"/>
      <point x="214" y="542"/>
      <point x="201" y="513"/>
      <point x="190" y="503" type="qcurve" smooth="yes"/>
      <point x="180" y="494"/>
      <point x="153" y="484"/>
      <point x="138" y="484" type="qcurve" smooth="yes"/>
      <point x="122" y="484"/>
      <point x="95" y="494"/>
      <point x="85" y="504" type="qcurve" smooth="yes"/>
      <point x="74" y="514"/>
      <point x="61" y="542"/>
      <point x="61" y="559" type="qcurve" smooth="yes"/>
      <point x="61" y="577"/>
      <point x="75" y="608"/>
      <point x="87" y="618" type="qcurve" smooth="yes"/>
      <point x="97" y="627"/>
      <point x="123" y="636"/>
      <point x="138" y="636" type="qcurve" smooth="yes"/>
      <point x="153" y="636"/>
      <point x="179" y="626"/>
      <point x="188" y="617" type="qcurve" smooth="yes"/>
      <point x="200" y="607"/>
      <point x="214" y="577"/>
    </contour>
  </outline>
</glyph>
<glyph name="plusminus" format="2">
  <advance width="524"/>
  <unicode hex="00B1"/>
  <outline>
    <contour>
      <point x="273" y="211" type="line"/>
      <point x="259" y="211" type="line"/>
      <point x="259" y="385" type="line"/>
      <point x="86" y="385" type="line"/>
      <point x="86" y="399" type="line"/>
      <point x="259" y="399" type="line"/>
      <point x="259" y="571" type="line"/>
      <point x="273" y="571" type="line"/>
      <point x="273" y="399" type="line"/>
      <point x="446" y="399" type="line"/>
      <point x="446" y="385" type="line"/>
      <point x="273" y="385" type="line"/>
    </contour>
    <contour>
      <point x="446" y="136" type="line"/>
      <point x="86" y="136" type="line"/>
      <point x="86" y="150" type="line"/>
      <point x="446" y="150" type="line"/>
    </contour>
  </outline>
</glyph>
<glyph name="onequarter" format="2">
  <advance width="968"/>
  <unicode hex="00BC"/>
  <outline>
    <contour>
      <point x="309" y="-19" type="qcurve"/>
      <point x="295" y="-19" type="line"/>
      <point x="365" y="171"/>
      <point x="503" y="545"/>
      <point x="573" y="735" type="qcurve"/>
      <point x="587" y="735" type="line"/>
      <point x="517" y="545"/>
      <point x="379" y="171"/>
    </contour>
    <contour>
      <point x="835" y="0" type="line"/>
      <point x="706" y="0" type="line"/>
      <point x="706" y="10" type="line"/>
      <point x="763" y="10" type="line"/>
      <point x="763" y="136" type="line"/>
      <point x="501" y="136" type="line"/>
      <point x="773" y="490" type="line"/>
      <point x="773" y="147" type="line"/>
      <point x="845" y="147" type="line"/>
      <point x="845" y="136" type="line"/>
      <point x="773" y="136" type="line"/>
      <point x="773" y="10" type="line"/>
      <point x="835" y="10" type="line"/>
    </contour>
    <contour>
      <point x="763" y="459" type="line"/>
      <point x="524" y="147" type="line"/>
      <point x="763" y="147" type="line"/>
    </contour>
    <contour>
      <point x="285" y="234" type="line"/>
      <point x="161" y="234" type="line"/>
      <point x="161" y="244" type="line"/>
      <point x="218" y="244" type="line"/>
      <point x="218" y="685" type="line"/>
      <point x="138" y="685" type="line"/>
      <point x="138" y="695" type="line"/>
      <point x="228" y="695" type="line"/>
      <point x="228" y="244" type="line"/>
      <point x="285" y="244" type="line"/>
    </contour>
  </outline>
</glyph>
<glyph name="divide" format="2">
  <advance width="501"/>
  <unicode hex="00F7"/>
  <outline>
    <contour>
      <point x="428" y="210" type="line"/>
      <point x="68" y="210" type="line"/>
      <point x="68" y="224" type="line"/>
      <point x="428" y="224" type="line"/>
    </contour>
    <contour>
      <point x="271" y="341" type="qcurve" smooth="yes"/>
      <point x="271" y="333"/>
      <point x="259" y="321"/>
      <point x="251" y="321" type="qcurve" smooth="yes"/>
      <point x="243" y="321"/>
      <point x="231" y="333"/>
      <point x="231" y="341" type="qcurve" smooth="yes"/>
      <point x="231" y="349"/>
      <point x="243" y="361"/>
      <point x="251" y="361" type="qcurve" smooth="yes"/>
      <point x="259" y="361"/>
      <point x="271" y="349"/>
    </contour>
    <contour>
      <point x="271" y="91" type="qcurve" smooth="yes"/>
      <point x="271" y="83"/>
      <point x="259" y="71"/>
      <point x="251" y="71" type="qcurve" smooth="yes"/>
      <point x="243" y="71"/>
      <point x="231" y="83"/>
      <point x="231" y="91" type="qcurve" smooth="yes"/>
      <point x="231" y="99"/>
      <point x="243" y="111"/>
      <point x="251" y="111" type="qcurve" smooth="yes"/>
      <point x="259" y="111"/>
      <point x="271" y="99"/>
    </contour>
  </outline>
</glyph>
<glyph name="oslash" format="2">
  <advance width="458"/>
  <unicode hex="00F8"/>
  <outline>
    <contour>
      <point x="49" y="188" type="qcurve" smooth="yes"/>
      <point x="49" y="150"/>
      <point x="78" y="83"/>
      <point x="103" y="58" type="qcurve"/>
      <point x="161" y="127"/>
      <point x="276" y="266"/>
      <point x="334" y="335" type="qcurve"/>
      <point x="312" y="351"/>
      <point x="258" y="369"/>
      <point x="229" y="369" type="qcurve" smooth="yes"/>
      <point x="191" y="369"/>
      <point x="126" y="341"/>
      <point x="101.5" y="316.0" type="qcurve" smooth="yes" name="inserted"/>
      <point x="77" y="291"/>
      <point x="49" y="225"/>
    </contour>
    <contour>
      <point x="112" y="50" type="qcurve"/>
      <point x="137.0" y="29.0" name="inserted"/>
      <point x="195.5" y="8.0"/>
      <point x="229" y="8" type="qcurve" smooth="yes"/>
      <point x="266" y="8"/>
      <point x="332" y="36"/>
      <point x="357.0" y="60.5" type="qcurve" smooth="yes" name="inserted"/>
      <point x="382" y="85"/>
      <point x="410" y="150"/>
      <point x="410" y="188" type="qcurve" smooth="yes"/>
      <point x="410" y="230"/>
      <point x="374" y="302"/>
      <point x="344" y="327" type="qcurve"/>
      <point x="286" y="258"/>
      <point x="170" y="119"/>
    </contour>
    <contour>
      <point x="103" y="39" type="qcurve"/>
      <point x="93" y="27"/>
      <point x="74" y="4"/>
      <point x="64" y="-8" type="qcurve"/>
      <point x="62" y="-6"/>
      <point x="57" y="-2"/>
      <point x="55" y="0" type="qcurve"/>
      <point x="65" y="12"/>
      <point x="84" y="35"/>
      <point x="94" y="47" type="qcurve"/>
      <point x="66" y="73"/>
      <point x="35" y="146"/>
      <point x="35" y="188" type="qcurve" smooth="yes"/>
      <point x="35" y="228"/>
      <point x="65" y="300"/>
      <point x="91.5" y="326.0" type="qcurve" smooth="yes" name="inserted"/>
      <point x="118" y="352"/>
      <point x="188" y="383"/>
      <point x="229" y="383" type="qcurve" smooth="yes"/>
      <point x="261" y="383"/>
      <point x="320" y="363"/>
      <point x="344" y="346" type="qcurve"/>
      <point x="352" y="355"/>
      <point x="367" y="374"/>
      <point x="375" y="383" type="qcurve"/>
      <point x="377" y="381"/>
      <point x="382" y="377"/>
      <point x="384" y="375" type="qcurve"/>
      <point x="376" y="366"/>
      <point x="361" y="347"/>
      <point x="353" y="338" type="qcurve"/>
      <point x="385" y="312"/>
      <point x="424" y="233"/>
      <point x="424" y="188" type="qcurve" smooth="yes"/>
      <point x="424" y="147"/>
      <point x="393" y="77"/>
      <point x="367.0" y="50.5" type="qcurve" smooth="yes" name="inserted"/>
      <point x="341" y="24"/>
      <point x="269" y="-6"/>
      <point x="229" y="-6" type="qcurve" smooth="yes"/>
      <point x="193" y="-6"/>
      <point x="129" y="18"/>
    </contour>
  </outline>
</glyph>
<glyph name="quotesinglbase" format="2">
  <advance width="146"/>
  <unicode hex="201A"/>
  <outline>
    <contour>
      <point x="72" y="92" type="qcurve"/>
      <point x="80" y="52"/>
      <point x="55" y="-21"/>
      <point x="26" y="-47" type="qcurve"/>
      <point x="20" y="-29" type="line"/>
      <point x="41" y="-9"/>
      <point x="60" y="50"/>
      <point x="53" y="85" type="qcurve"/>
      <point x="58" y="87"/>
      <point x="67" y="90"/>
    </contour>
  </outline>
</glyph>
